Ghostrider 6.66 What The F**k (2012) HQ-DVDRip-NLU002
.
[img]http://www.freeimagehosting.net/t/ubcmw.jpg[/img][/url]
. 
http://www.ghostridermovie.net/666/ghostrider-666-what-the-fuck
.
Source: PAL Retail DVD9
Format: MP4
.
Enjoy
.
What you will see.

** TURBO BUSA FUN…
** SLINGERBULTEN ON 2 WHEELS – THE REAL RUN
** JUMP THE HORSNGATAN – Oooooooops!!
** GHOSTRIDER ON 2 WHEELS vs SWEDISH POLICE
** GIS 3 – GHOSTRIDER IN SUBARU 3
** STOCKHOLM RUN – THE OTHER WAY…
** GHOSTRIDER – JUST F***ING BORING… ;0)
** GHOSTRIDER ON NÜRBURGRING – PURE FUN ON 2 WHEELS
** GHOSTRIDER ON 2 WHEELS vs SWEDISH POLICE 2
** SLINGERBULTEN ON 4 WHEELS – THE FAST RUN
** GHOSTRIDER – SLIP’n SLIDE
** GHOSTRIDER ON 4 WHEELS vs SWEDISH POLICE – THE HARD WAY
.
General
Format                                   : MPEG-4
Format profile                           : Base Media / Version 2
Codec ID                                 : mp42
File size                                : 1.16 GiB
Duration                                 : 2h 27mn
Overall bit rate mode                    : Variable
Overall bit rate                         : 1 129 Kbps
Movie name                               : GhostRider 6.66 What The Fuck
Writing application                      : TMPGEnc Video Mastering Works 5 Version. 5.3.1.85
Copyright                                : NLU002
Comment                                  : Enjoy

Video
ID                                       : 2
Format                                   : AVC
Format/Info                              : Advanced Video Codec
Format profile                           : High@L3.1
Format settings, CABAC                   : Yes
Format settings, ReFrames                : 7 frames
Codec ID                                 : avc1
Codec ID/Info                            : Advanced Video Coding
Duration                                 : 2h 27mn
Bit rate mode                            : Variable
Bit rate                                 : 1 000 Kbps
Nominal bit rate                         : 1 000 Mbps
Maximum bit rate                         : 8 000 Kbps
Width                                    : 720 pixels
Height                                   : 576 pixels
Display aspect ratio                     : 16:9
Frame rate mode                          : Constant
Frame rate                               : 25.000 fps
Standard                                 : NTSC
Color space                              : YUV
Chroma subsampling                       : 4:2:0
Bit depth                                : 8 bits
Scan type                                : MBAFF
Bits/(Pixel*Frame)                       : 0.096
Stream size                              : 1.03 GiB (89%)
Writing library                          : x264 core 124
Encoding settings                        : cabac=1 / ref=7 / deblock=1:0:0 / analyse=0x3:0x113 / me=hex / subme=7 / psy=1 / psy_rd=1.00:0.00 / mixed_ref=1 / me_range=16 / chroma_me=1 / trellis=1 / 8x8dct=1 / cqm=2 / deadzone=21,11 / fast_pskip=1 / chroma_qp_offset=-4 / threads=3 / sliced_threads=0 / slices=1 / nr=0 / decimate=1 / interlaced=tff / bluray_compat=0 / constrained_intra=0 / bframes=3 / b_pyramid=0 / b_adapt=1 / b_bias=0 / direct=1 / weightb=1 / open_gop=0 / weightp=0 / keyint=250 / keyint_min=25 / scenecut=40 / intra_refresh=0 / rc_lookahead=40 / rc=2pass / mbtree=1 / bitrate=1000000 / ratetol=1.0 / qcomp=0.60 / qpmin=5 / qpmax=69 / qpstep=4 / cplxblur=20.0 / qblur=0.5 / vbv_maxrate=8000000 / vbv_bufsize=8000000 / nal_hrd=vbr / ip_ratio=1.40 / aq=1:1.00
Color primaries                          : BT.601 NTSC
Transfer characteristics                 : BT.601
Matrix coefficients                      : BT.601

Audio
ID                                       : 1
Format                                   : AAC
Format/Info                              : Advanced Audio Codec
Format profile                           : LC
Codec ID                                 : 40
Duration                                 : 2h 27mn
Bit rate mode                            : Variable
Bit rate                                 : 125 Kbps
Maximum bit rate                         : 576 Kbps
Channel(s)                               : 2 channels
Channel positions                        : Front: L R
Sampling rate                            : 48.0 KHz
Compression mode                         : Lossy
Delay relative to video                  : 40ms
Stream size                              : 132 MiB (11%)


